STARTFONT 2.1
FONT --Ammolite-Regular-R-Normal--10-100-72-72-C-80-ISO8859-1
SIZE 10 72 72
FONTBOUNDINGBOX 8 10 0 -1
METRICSSET 2
STARTPROPERTIES 18
PIXEL_SIZE 10
RESOLUTION_X 72
RESOLUTION_Y 72
POINT_SIZE 100
FACE_NAME "Ammolite Regular 8x10"
FONT_VERSION "1"
FOUNDRY ""
FAMILY_NAME "Ammolite"
WEIGHT_NAME "Regular"
RELATIVE_WEIGHT 50
SLANT "R"
SPACING "C"
SETWIDTH_NAME "Normal"
RELATIVE_SETWIDTH 50
ADD_STYLE_NAME ""
AVERAGE_WIDTH 80
CHARSET_REGISTRY "ISO8859"
CHARSET_ENCODING "1"
ENDPROPERTIES
CHARS 97
STARTCHAR space
ENCODING 32
SWIDTH 800 0
DWIDTH 8 0
BBX 8 10 0 -1
VVECTOR 4 9
SWIDTH1 0 -1000
DWIDTH1 0 -10
BITMAP 
00
00
00
00
00
00
00
00
00
00
ENDCHAR
STARTCHAR exclam
ENCODING 33
SWIDTH 800 0
DWIDTH 8 0
BBX 8 10 0 -1
VVECTOR 4 9
SWIDTH1 0 -1000
DWIDTH1 0 -10
BITMAP 
3C
24
24
24
24
3C
24
24
3C
00
ENDCHAR
STARTCHAR quotedbl
ENCODING 34
SWIDTH 800 0
DWIDTH 8 0
BBX 8 10 0 -1
VVECTOR 4 9
SWIDTH1 0 -1000
DWIDTH1 0 -10
BITMAP 
FF
99
99
99
FF
00
00
00
00
00
ENDCHAR
STARTCHAR numbersign
ENCODING 35
SWIDTH 800 0
DWIDTH 8 0
BBX 8 10 0 -1
VVECTOR 4 9
SWIDTH1 0 -1000
DWIDTH1 0 -10
BITMAP 
7E
5A
DB
81
DB
81
DB
5A
7E
00
ENDCHAR
STARTCHAR dollar
ENCODING 36
SWIDTH 800 0
DWIDTH 8 0
BBX 8 10 0 -1
VVECTOR 4 9
SWIDTH1 0 -1000
DWIDTH1 0 -10
BITMAP 
3C
66
C2
AE
C3
ED
AD
C3
6E
3C
ENDCHAR
STARTCHAR percent
ENCODING 37
SWIDTH 800 0
DWIDTH 8 0
BBX 8 10 0 -1
VVECTOR 4 9
SWIDTH1 0 -1000
DWIDTH1 0 -10
BITMAP 
00
F7
9D
9B
F7
6F
D9
B9
EF
00
ENDCHAR
STARTCHAR ampersand
ENCODING 38
SWIDTH 800 0
DWIDTH 8 0
BBX 8 10 0 -1
VVECTOR 4 9
SWIDTH1 0 -1000
DWIDTH1 0 -10
BITMAP 
78
CC
B4
B4
CF
B5
BB
C5
FF
00
ENDCHAR
STARTCHAR quotesingle
ENCODING 39
SWIDTH 800 0
DWIDTH 8 0
BBX 8 10 0 -1
VVECTOR 4 9
SWIDTH1 0 -1000
DWIDTH1 0 -10
BITMAP 
1C
34
6C
58
70
00
00
00
00
00
ENDCHAR
STARTCHAR parenleft
ENCODING 40
SWIDTH 800 0
DWIDTH 8 0
BBX 8 10 0 -1
VVECTOR 4 9
SWIDTH1 0 -1000
DWIDTH1 0 -10
BITMAP 
1E
32
26
24
24
24
26
32
1E
00
ENDCHAR
STARTCHAR parenright
ENCODING 41
SWIDTH 800 0
DWIDTH 8 0
BBX 8 10 0 -1
VVECTOR 4 9
SWIDTH1 0 -1000
DWIDTH1 0 -10
BITMAP 
78
4C
64
24
24
24
64
4C
78
00
ENDCHAR
STARTCHAR asterisk
ENCODING 42
SWIDTH 800 0
DWIDTH 8 0
BBX 8 10 0 -1
VVECTOR 4 9
SWIDTH1 0 -1000
DWIDTH1 0 -10
BITMAP 
00
7E
5A
E7
81
E7
5A
7E
00
00
ENDCHAR
STARTCHAR plus
ENCODING 43
SWIDTH 800 0
DWIDTH 8 0
BBX 8 10 0 -1
VVECTOR 4 9
SWIDTH1 0 -1000
DWIDTH1 0 -10
BITMAP 
00
3C
24
E7
81
E7
24
3C
00
00
ENDCHAR
STARTCHAR comma
ENCODING 44
SWIDTH 800 0
DWIDTH 8 0
BBX 8 10 0 -1
VVECTOR 4 9
SWIDTH1 0 -1000
DWIDTH1 0 -10
BITMAP 
00
00
00
00
00
3C
24
24
4C
78
ENDCHAR
STARTCHAR hyphen
ENCODING 45
SWIDTH 800 0
DWIDTH 8 0
BBX 8 10 0 -1
VVECTOR 4 9
SWIDTH1 0 -1000
DWIDTH1 0 -10
BITMAP 
00
00
00
7E
42
7E
00
00
00
00
ENDCHAR
STARTCHAR period
ENCODING 46
SWIDTH 800 0
DWIDTH 8 0
BBX 8 10 0 -1
VVECTOR 4 9
SWIDTH1 0 -1000
DWIDTH1 0 -10
BITMAP 
00
00
00
00
00
78
48
48
78
00
ENDCHAR
STARTCHAR slash
ENCODING 47
SWIDTH 800 0
DWIDTH 8 0
BBX 8 10 0 -1
VVECTOR 4 9
SWIDTH1 0 -1000
DWIDTH1 0 -10
BITMAP 
00
07
0D
19
33
66
CC
98
F0
00
ENDCHAR
STARTCHAR zero
ENCODING 48
SWIDTH 800 0
DWIDTH 8 0
BBX 8 10 0 -1
VVECTOR 4 9
SWIDTH1 0 -1000
DWIDTH1 0 -10
BITMAP 
7E
C3
99
91
89
99
99
C3
7E
00
ENDCHAR
STARTCHAR one
ENCODING 49
SWIDTH 800 0
DWIDTH 8 0
BBX 8 10 0 -1
VVECTOR 4 9
SWIDTH1 0 -1000
DWIDTH1 0 -10
BITMAP 
3C
64
44
64
24
24
66
42
7E
00
ENDCHAR
STARTCHAR two
ENCODING 50
SWIDTH 800 0
DWIDTH 8 0
BBX 8 10 0 -1
VVECTOR 4 9
SWIDTH1 0 -1000
DWIDTH1 0 -10
BITMAP 
7E
C3
99
F9
33
66
CF
81
FF
00
ENDCHAR
STARTCHAR three
ENCODING 51
SWIDTH 800 0
DWIDTH 8 0
BBX 8 10 0 -1
VVECTOR 4 9
SWIDTH1 0 -1000
DWIDTH1 0 -10
BITMAP 
7E
C3
99
F9
23
F9
99
C3
7E
00
ENDCHAR
STARTCHAR four
ENCODING 52
SWIDTH 800 0
DWIDTH 8 0
BBX 8 10 0 -1
VVECTOR 4 9
SWIDTH1 0 -1000
DWIDTH1 0 -10
BITMAP 
1E
32
62
D2
B3
81
F2
12
1E
00
ENDCHAR
STARTCHAR five
ENCODING 53
SWIDTH 800 0
DWIDTH 8 0
BBX 8 10 0 -1
VVECTOR 4 9
SWIDTH1 0 -1000
DWIDTH1 0 -10
BITMAP 
FE
82
9E
9E
83
F9
99
C3
7E
00
ENDCHAR
STARTCHAR six
ENCODING 54
SWIDTH 800 0
DWIDTH 8 0
BBX 8 10 0 -1
VVECTOR 4 9
SWIDTH1 0 -1000
DWIDTH1 0 -10
BITMAP 
7E
C3
99
9F
83
99
99
C3
7E
00
ENDCHAR
STARTCHAR seven
ENCODING 55
SWIDTH 800 0
DWIDTH 8 0
BBX 8 10 0 -1
VVECTOR 4 9
SWIDTH1 0 -1000
DWIDTH1 0 -10
BITMAP 
FF
81
F9
33
26
24
24
24
3C
00
ENDCHAR
STARTCHAR eight
ENCODING 56
SWIDTH 800 0
DWIDTH 8 0
BBX 8 10 0 -1
VVECTOR 4 9
SWIDTH1 0 -1000
DWIDTH1 0 -10
BITMAP 
7E
C3
99
99
C3
99
99
C3
7E
00
ENDCHAR
STARTCHAR nine
ENCODING 57
SWIDTH 800 0
DWIDTH 8 0
BBX 8 10 0 -1
VVECTOR 4 9
SWIDTH1 0 -1000
DWIDTH1 0 -10
BITMAP 
7E
C3
99
99
C1
F9
99
C3
7E
00
ENDCHAR
STARTCHAR colon
ENCODING 58
SWIDTH 800 0
DWIDTH 8 0
BBX 8 10 0 -1
VVECTOR 4 9
SWIDTH1 0 -1000
DWIDTH1 0 -10
BITMAP 
00
00
78
48
48
78
48
48
78
00
ENDCHAR
STARTCHAR semicolon
ENCODING 59
SWIDTH 800 0
DWIDTH 8 0
BBX 8 10 0 -1
VVECTOR 4 9
SWIDTH1 0 -1000
DWIDTH1 0 -10
BITMAP 
00
00
3C
24
24
3C
24
24
4C
78
ENDCHAR
STARTCHAR less
ENCODING 60
SWIDTH 800 0
DWIDTH 8 0
BBX 8 10 0 -1
VVECTOR 4 9
SWIDTH1 0 -1000
DWIDTH1 0 -10
BITMAP 
00
00
1E
32
66
4C
66
32
1E
00
ENDCHAR
STARTCHAR equal
ENCODING 61
SWIDTH 800 0
DWIDTH 8 0
BBX 8 10 0 -1
VVECTOR 4 9
SWIDTH1 0 -1000
DWIDTH1 0 -10
BITMAP 
00
00
7E
42
7E
42
7E
00
00
00
ENDCHAR
STARTCHAR greater
ENCODING 62
SWIDTH 800 0
DWIDTH 8 0
BBX 8 10 0 -1
VVECTOR 4 9
SWIDTH1 0 -1000
DWIDTH1 0 -10
BITMAP 
00
00
78
4C
66
32
66
4C
78
00
ENDCHAR
STARTCHAR question
ENCODING 63
SWIDTH 800 0
DWIDTH 8 0
BBX 8 10 0 -1
VVECTOR 4 9
SWIDTH1 0 -1000
DWIDTH1 0 -10
BITMAP 
7E
C3
99
F9
33
26
3C
24
3C
00
ENDCHAR
STARTCHAR at
ENCODING 64
SWIDTH 800 0
DWIDTH 8 0
BBX 8 10 0 -1
VVECTOR 4 9
SWIDTH1 0 -1000
DWIDTH1 0 -10
BITMAP 
7E
C3
B9
A1
A9
A1
9F
C3
7E
00
ENDCHAR
STARTCHAR A
ENCODING 65
SWIDTH 800 0
DWIDTH 8 0
BBX 8 10 0 -1
VVECTOR 4 9
SWIDTH1 0 -1000
DWIDTH1 0 -10
BITMAP 
3C
66
C3
99
81
99
99
99
FF
00
ENDCHAR
STARTCHAR B
ENCODING 66
SWIDTH 800 0
DWIDTH 8 0
BBX 8 10 0 -1
VVECTOR 4 9
SWIDTH1 0 -1000
DWIDTH1 0 -10
BITMAP 
FE
83
99
99
83
99
99
83
FE
00
ENDCHAR
STARTCHAR C
ENCODING 67
SWIDTH 800 0
DWIDTH 8 0
BBX 8 10 0 -1
VVECTOR 4 9
SWIDTH1 0 -1000
DWIDTH1 0 -10
BITMAP 
7E
C3
99
9F
90
9F
99
C3
7E
00
ENDCHAR
STARTCHAR D
ENCODING 68
SWIDTH 800 0
DWIDTH 8 0
BBX 8 10 0 -1
VVECTOR 4 9
SWIDTH1 0 -1000
DWIDTH1 0 -10
BITMAP 
FE
83
99
99
99
99
99
83
FE
00
ENDCHAR
STARTCHAR E
ENCODING 69
SWIDTH 800 0
DWIDTH 8 0
BBX 8 10 0 -1
VVECTOR 4 9
SWIDTH1 0 -1000
DWIDTH1 0 -10
BITMAP 
FF
81
9F
9C
84
9C
9F
81
FF
00
ENDCHAR
STARTCHAR F
ENCODING 70
SWIDTH 800 0
DWIDTH 8 0
BBX 8 10 0 -1
VVECTOR 4 9
SWIDTH1 0 -1000
DWIDTH1 0 -10
BITMAP 
FF
81
9F
9C
84
9C
90
90
F0
00
ENDCHAR
STARTCHAR G
ENCODING 71
SWIDTH 800 0
DWIDTH 8 0
BBX 8 10 0 -1
VVECTOR 4 9
SWIDTH1 0 -1000
DWIDTH1 0 -10
BITMAP 
7E
C3
99
9F
91
99
99
C3
7E
00
ENDCHAR
STARTCHAR H
ENCODING 72
SWIDTH 800 0
DWIDTH 8 0
BBX 8 10 0 -1
VVECTOR 4 9
SWIDTH1 0 -1000
DWIDTH1 0 -10
BITMAP 
FF
99
99
99
81
99
99
99
FF
00
ENDCHAR
STARTCHAR I
ENCODING 73
SWIDTH 800 0
DWIDTH 8 0
BBX 8 10 0 -1
VVECTOR 4 9
SWIDTH1 0 -1000
DWIDTH1 0 -10
BITMAP 
7E
42
66
24
24
24
66
42
7E
00
ENDCHAR
STARTCHAR J
ENCODING 74
SWIDTH 800 0
DWIDTH 8 0
BBX 8 10 0 -1
VVECTOR 4 9
SWIDTH1 0 -1000
DWIDTH1 0 -10
BITMAP 
7E
42
72
32
32
32
92
C6
7C
00
ENDCHAR
STARTCHAR K
ENCODING 75
SWIDTH 800 0
DWIDTH 8 0
BBX 8 10 0 -1
VVECTOR 4 9
SWIDTH1 0 -1000
DWIDTH1 0 -10
BITMAP 
FF
99
91
82
84
82
91
99
FF
00
ENDCHAR
STARTCHAR L
ENCODING 76
SWIDTH 800 0
DWIDTH 8 0
BBX 8 10 0 -1
VVECTOR 4 9
SWIDTH1 0 -1000
DWIDTH1 0 -10
BITMAP 
F0
90
90
90
90
90
9F
81
FF
00
ENDCHAR
STARTCHAR M
ENCODING 77
SWIDTH 800 0
DWIDTH 8 0
BBX 8 10 0 -1
VVECTOR 4 9
SWIDTH1 0 -1000
DWIDTH1 0 -10
BITMAP 
FF
99
81
81
99
99
99
99
FF
00
ENDCHAR
STARTCHAR N
ENCODING 78
SWIDTH 800 0
DWIDTH 8 0
BBX 8 10 0 -1
VVECTOR 4 9
SWIDTH1 0 -1000
DWIDTH1 0 -10
BITMAP 
FF
99
89
81
81
91
99
99
FF
00
ENDCHAR
STARTCHAR O
ENCODING 79
SWIDTH 800 0
DWIDTH 8 0
BBX 8 10 0 -1
VVECTOR 4 9
SWIDTH1 0 -1000
DWIDTH1 0 -10
BITMAP 
7E
C3
99
99
99
99
99
C3
7E
00
ENDCHAR
STARTCHAR P
ENCODING 80
SWIDTH 800 0
DWIDTH 8 0
BBX 8 10 0 -1
VVECTOR 4 9
SWIDTH1 0 -1000
DWIDTH1 0 -10
BITMAP 
FE
83
99
99
83
9E
90
90
F0
00
ENDCHAR
STARTCHAR Q
ENCODING 81
SWIDTH 800 0
DWIDTH 8 0
BBX 8 10 0 -1
VVECTOR 4 9
SWIDTH1 0 -1000
DWIDTH1 0 -10
BITMAP 
7E
C3
99
99
99
99
91
C1
7F
00
ENDCHAR
STARTCHAR R
ENCODING 82
SWIDTH 800 0
DWIDTH 8 0
BBX 8 10 0 -1
VVECTOR 4 9
SWIDTH1 0 -1000
DWIDTH1 0 -10
BITMAP 
FE
83
99
99
83
99
99
99
FF
00
ENDCHAR
STARTCHAR S
ENCODING 83
SWIDTH 800 0
DWIDTH 8 0
BBX 8 10 0 -1
VVECTOR 4 9
SWIDTH1 0 -1000
DWIDTH1 0 -10
BITMAP 
7E
C3
99
9F
C3
F9
99
C3
7E
00
ENDCHAR
STARTCHAR T
ENCODING 84
SWIDTH 800 0
DWIDTH 8 0
BBX 8 10 0 -1
VVECTOR 4 9
SWIDTH1 0 -1000
DWIDTH1 0 -10
BITMAP 
FF
81
E7
24
24
24
24
24
3C
00
ENDCHAR
STARTCHAR U
ENCODING 85
SWIDTH 800 0
DWIDTH 8 0
BBX 8 10 0 -1
VVECTOR 4 9
SWIDTH1 0 -1000
DWIDTH1 0 -10
BITMAP 
FF
99
99
99
99
99
99
C1
FF
00
ENDCHAR
STARTCHAR V
ENCODING 86
SWIDTH 800 0
DWIDTH 8 0
BBX 8 10 0 -1
VVECTOR 4 9
SWIDTH1 0 -1000
DWIDTH1 0 -10
BITMAP 
FF
99
99
99
99
99
C3
66
3C
00
ENDCHAR
STARTCHAR W
ENCODING 87
SWIDTH 800 0
DWIDTH 8 0
BBX 8 10 0 -1
VVECTOR 4 9
SWIDTH1 0 -1000
DWIDTH1 0 -10
BITMAP 
FF
99
99
99
99
81
81
99
FF
00
ENDCHAR
STARTCHAR X
ENCODING 88
SWIDTH 800 0
DWIDTH 8 0
BBX 8 10 0 -1
VVECTOR 4 9
SWIDTH1 0 -1000
DWIDTH1 0 -10
BITMAP 
FF
99
99
99
C3
99
99
99
FF
00
ENDCHAR
STARTCHAR Y
ENCODING 89
SWIDTH 800 0
DWIDTH 8 0
BBX 8 10 0 -1
VVECTOR 4 9
SWIDTH1 0 -1000
DWIDTH1 0 -10
BITMAP 
FF
99
99
99
C3
66
24
24
3C
00
ENDCHAR
STARTCHAR Z
ENCODING 90
SWIDTH 800 0
DWIDTH 8 0
BBX 8 10 0 -1
VVECTOR 4 9
SWIDTH1 0 -1000
DWIDTH1 0 -10
BITMAP 
FF
81
F9
33
66
CC
9F
81
FF
00
ENDCHAR
STARTCHAR bracketleft
ENCODING 91
SWIDTH 800 0
DWIDTH 8 0
BBX 8 10 0 -1
VVECTOR 4 9
SWIDTH1 0 -1000
DWIDTH1 0 -10
BITMAP 
7E
42
4E
48
48
48
4E
42
7E
00
ENDCHAR
STARTCHAR backslash
ENCODING 92
SWIDTH 800 0
DWIDTH 8 0
BBX 8 10 0 -1
VVECTOR 4 9
SWIDTH1 0 -1000
DWIDTH1 0 -10
BITMAP 
00
E0
B0
98
CC
66
33
19
0F
00
ENDCHAR
STARTCHAR bracketright
ENCODING 93
SWIDTH 800 0
DWIDTH 8 0
BBX 8 10 0 -1
VVECTOR 4 9
SWIDTH1 0 -1000
DWIDTH1 0 -10
BITMAP 
7E
42
72
12
12
12
72
42
7E
00
ENDCHAR
STARTCHAR asciicircum
ENCODING 94
SWIDTH 800 0
DWIDTH 8 0
BBX 8 10 0 -1
VVECTOR 4 9
SWIDTH1 0 -1000
DWIDTH1 0 -10
BITMAP 
3C
66
42
5A
7E
00
00
00
00
00
ENDCHAR
STARTCHAR underscore
ENCODING 95
SWIDTH 800 0
DWIDTH 8 0
BBX 8 10 0 -1
VVECTOR 4 9
SWIDTH1 0 -1000
DWIDTH1 0 -10
BITMAP 
00
00
00
00
00
00
FF
81
FF
00
ENDCHAR
STARTCHAR grave
ENCODING 96
SWIDTH 800 0
DWIDTH 8 0
BBX 8 10 0 -1
VVECTOR 4 9
SWIDTH1 0 -1000
DWIDTH1 0 -10
BITMAP 
78
48
48
48
78
00
00
00
00
00
ENDCHAR
STARTCHAR a
ENCODING 97
SWIDTH 800 0
DWIDTH 8 0
BBX 8 10 0 -1
VVECTOR 4 9
SWIDTH1 0 -1000
DWIDTH1 0 -10
BITMAP 
00
00
7E
43
79
C1
99
C1
7F
00
ENDCHAR
STARTCHAR b
ENCODING 98
SWIDTH 800 0
DWIDTH 8 0
BBX 8 10 0 -1
VVECTOR 4 9
SWIDTH1 0 -1000
DWIDTH1 0 -10
BITMAP 
00
F0
90
9E
83
99
99
83
FE
00
ENDCHAR
STARTCHAR c
ENCODING 99
SWIDTH 800 0
DWIDTH 8 0
BBX 8 10 0 -1
VVECTOR 4 9
SWIDTH1 0 -1000
DWIDTH1 0 -10
BITMAP 
00
00
7E
C2
9E
90
9E
C2
7E
00
ENDCHAR
STARTCHAR d
ENCODING 100
SWIDTH 800 0
DWIDTH 8 0
BBX 8 10 0 -1
VVECTOR 4 9
SWIDTH1 0 -1000
DWIDTH1 0 -10
BITMAP 
0F
09
79
C1
99
99
99
C1
7F
00
ENDCHAR
STARTCHAR e
ENCODING 101
SWIDTH 800 0
DWIDTH 8 0
BBX 8 10 0 -1
VVECTOR 4 9
SWIDTH1 0 -1000
DWIDTH1 0 -10
BITMAP 
00
00
7E
C3
99
81
9F
C3
7E
00
ENDCHAR
STARTCHAR f
ENCODING 102
SWIDTH 800 0
DWIDTH 8 0
BBX 8 10 0 -1
VVECTOR 4 9
SWIDTH1 0 -1000
DWIDTH1 0 -10
BITMAP 
1F
31
67
41
67
24
24
24
3C
00
ENDCHAR
STARTCHAR g
ENCODING 103
SWIDTH 800 0
DWIDTH 8 0
BBX 8 10 0 -1
VVECTOR 4 9
SWIDTH1 0 -1000
DWIDTH1 0 -10
BITMAP 
00
00
7F
C1
99
99
C1
79
83
FE
ENDCHAR
STARTCHAR h
ENCODING 104
SWIDTH 800 0
DWIDTH 8 0
BBX 8 10 0 -1
VVECTOR 4 9
SWIDTH1 0 -1000
DWIDTH1 0 -10
BITMAP 
F0
90
9E
83
99
99
99
99
FF
00
ENDCHAR
STARTCHAR i
ENCODING 105
SWIDTH 800 0
DWIDTH 8 0
BBX 8 10 0 -1
VVECTOR 4 9
SWIDTH1 0 -1000
DWIDTH1 0 -10
BITMAP 
00
3C
24
7C
44
64
66
42
7E
00
ENDCHAR
STARTCHAR j
ENCODING 106
SWIDTH 800 0
DWIDTH 8 0
BBX 8 10 0 -1
VVECTOR 4 9
SWIDTH1 0 -1000
DWIDTH1 0 -10
BITMAP 
00
1E
12
1E
12
F2
92
C6
7C
00
ENDCHAR
STARTCHAR k
ENCODING 107
SWIDTH 800 0
DWIDTH 8 0
BBX 8 10 0 -1
VVECTOR 4 9
SWIDTH1 0 -1000
DWIDTH1 0 -10
BITMAP 
F0
90
90
9E
92
86
93
99
FF
00
ENDCHAR
STARTCHAR l
ENCODING 108
SWIDTH 800 0
DWIDTH 8 0
BBX 8 10 0 -1
VVECTOR 4 9
SWIDTH1 0 -1000
DWIDTH1 0 -10
BITMAP 
7C
44
64
24
24
24
66
42
7E
00
ENDCHAR
STARTCHAR m
ENCODING 109
SWIDTH 800 0
DWIDTH 8 0
BBX 8 10 0 -1
VVECTOR 4 9
SWIDTH1 0 -1000
DWIDTH1 0 -10
BITMAP 
00
00
FF
99
81
81
99
99
FF
00
ENDCHAR
STARTCHAR n
ENCODING 110
SWIDTH 800 0
DWIDTH 8 0
BBX 8 10 0 -1
VVECTOR 4 9
SWIDTH1 0 -1000
DWIDTH1 0 -10
BITMAP 
00
00
FE
83
99
99
99
99
FF
00
ENDCHAR
STARTCHAR o
ENCODING 111
SWIDTH 800 0
DWIDTH 8 0
BBX 8 10 0 -1
VVECTOR 4 9
SWIDTH1 0 -1000
DWIDTH1 0 -10
BITMAP 
00
00
7E
C3
99
99
99
C3
7E
00
ENDCHAR
STARTCHAR p
ENCODING 112
SWIDTH 800 0
DWIDTH 8 0
BBX 8 10 0 -1
VVECTOR 4 9
SWIDTH1 0 -1000
DWIDTH1 0 -10
BITMAP 
00
00
FE
83
99
99
83
9E
90
F0
ENDCHAR
STARTCHAR q
ENCODING 113
SWIDTH 800 0
DWIDTH 8 0
BBX 8 10 0 -1
VVECTOR 4 9
SWIDTH1 0 -1000
DWIDTH1 0 -10
BITMAP 
00
00
7F
C1
99
99
C1
79
09
0F
ENDCHAR
STARTCHAR r
ENCODING 114
SWIDTH 800 0
DWIDTH 8 0
BBX 8 10 0 -1
VVECTOR 4 9
SWIDTH1 0 -1000
DWIDTH1 0 -10
BITMAP 
00
00
FE
83
99
9F
90
90
F0
00
ENDCHAR
STARTCHAR s
ENCODING 115
SWIDTH 800 0
DWIDTH 8 0
BBX 8 10 0 -1
VVECTOR 4 9
SWIDTH1 0 -1000
DWIDTH1 0 -10
BITMAP 
00
00
7F
C1
9F
C3
F9
83
FE
00
ENDCHAR
STARTCHAR t
ENCODING 116
SWIDTH 800 0
DWIDTH 8 0
BBX 8 10 0 -1
VVECTOR 4 9
SWIDTH1 0 -1000
DWIDTH1 0 -10
BITMAP 
3C
24
E7
81
E7
24
27
31
1F
00
ENDCHAR
STARTCHAR u
ENCODING 117
SWIDTH 800 0
DWIDTH 8 0
BBX 8 10 0 -1
VVECTOR 4 9
SWIDTH1 0 -1000
DWIDTH1 0 -10
BITMAP 
00
00
FF
99
99
99
99
C1
7F
00
ENDCHAR
STARTCHAR v
ENCODING 118
SWIDTH 800 0
DWIDTH 8 0
BBX 8 10 0 -1
VVECTOR 4 9
SWIDTH1 0 -1000
DWIDTH1 0 -10
BITMAP 
00
00
FF
99
99
99
C3
66
3C
00
ENDCHAR
STARTCHAR w
ENCODING 119
SWIDTH 800 0
DWIDTH 8 0
BBX 8 10 0 -1
VVECTOR 4 9
SWIDTH1 0 -1000
DWIDTH1 0 -10
BITMAP 
00
00
FF
99
99
99
81
99
FF
00
ENDCHAR
STARTCHAR x
ENCODING 120
SWIDTH 800 0
DWIDTH 8 0
BBX 8 10 0 -1
VVECTOR 4 9
SWIDTH1 0 -1000
DWIDTH1 0 -10
BITMAP 
00
00
FF
99
81
C3
81
99
FF
00
ENDCHAR
STARTCHAR y
ENCODING 121
SWIDTH 800 0
DWIDTH 8 0
BBX 8 10 0 -1
VVECTOR 4 9
SWIDTH1 0 -1000
DWIDTH1 0 -10
BITMAP 
00
00
FF
99
99
99
81
F3
86
FC
ENDCHAR
STARTCHAR z
ENCODING 122
SWIDTH 800 0
DWIDTH 8 0
BBX 8 10 0 -1
VVECTOR 4 9
SWIDTH1 0 -1000
DWIDTH1 0 -10
BITMAP 
00
00
FF
81
E1
C3
87
81
FF
00
ENDCHAR
STARTCHAR braceleft
ENCODING 123
SWIDTH 800 0
DWIDTH 8 0
BBX 8 10 0 -1
VVECTOR 4 9
SWIDTH1 0 -1000
DWIDTH1 0 -10
BITMAP 
1E
32
24
64
4C
64
26
32
1E
00
ENDCHAR
STARTCHAR bar
ENCODING 124
SWIDTH 800 0
DWIDTH 8 0
BBX 8 10 0 -1
VVECTOR 4 9
SWIDTH1 0 -1000
DWIDTH1 0 -10
BITMAP 
3C
24
24
24
3C
24
24
24
3C
00
ENDCHAR
STARTCHAR braceright
ENCODING 125
SWIDTH 800 0
DWIDTH 8 0
BBX 8 10 0 -1
VVECTOR 4 9
SWIDTH1 0 -1000
DWIDTH1 0 -10
BITMAP 
78
4C
24
26
32
26
64
4C
78
00
ENDCHAR
STARTCHAR asciitilde
ENCODING 126
SWIDTH 800 0
DWIDTH 8 0
BBX 8 10 0 -1
VVECTOR 4 9
SWIDTH1 0 -1000
DWIDTH1 0 -10
BITMAP 
7F
C9
93
FE
00
00
00
00
00
00
ENDCHAR
STARTCHAR char7F
ENCODING 127
SWIDTH 800 0
DWIDTH 8 0
BBX 8 10 0 -1
VVECTOR 4 9
SWIDTH1 0 -1000
DWIDTH1 0 -10
BITMAP 
1C
38
71
E3
C7
8E
1C
38
70
00
ENDCHAR
STARTCHAR default
ENCODING -1
SWIDTH 800 0
DWIDTH 8 0
BBX 8 10 0 -1
VVECTOR 4 9
SWIDTH1 0 -1000
DWIDTH1 0 -10
BITMAP 
00
00
00
00
00
00
00
00
00
00
ENDCHAR
ENDFONT
